<?xml version="1.0" encoding="UTF-8" standalone="no"?>
<!DOCTYPE svg PUBLIC "-//W3C//DTD SVG 1.1//EN" "http://www.w3.org/Graphics/SVG/1.1/DTD/svg11.dtd">
<svg width="100%" height="100%" viewBox="0 0 22 23" version="1.1" xmlns="http://www.w3.org/2000/svg" xmlns:xlink="http://www.w3.org/1999/xlink" xml:space="preserve" xmlns:serif="http://www.serif.com/" style="fill-rule:evenodd;clip-rule:evenodd;stroke-linejoin:round;stroke-miterlimit:2;">
    <g transform="matrix(1,0,0,1,-677.947,-112.999)">
        <g transform="matrix(1,0,0,1,-0.526042,0)">
            <g id="arrow-right" transform="matrix(0.914128,0,0,0.914128,678.474,110.414)">
                <path d="M23,15C23,15.531 22.797,16.047 22.422,16.422L12.25,26.594C11.875,26.953 11.359,27.172 10.828,27.172C10.297,27.172 9.797,26.953 9.422,26.594L8.25,25.422C7.875,25.047 7.656,24.531 7.656,24C7.656,23.469 7.875,22.953 8.25,22.578L12.828,18L1.828,18C0.703,18 0,17.062 0,16L0,14C0,12.938 0.703,12 1.828,12L12.828,12L8.25,7.406C7.875,7.047 7.656,6.531 7.656,6C7.656,5.469 7.875,4.953 8.25,4.594L9.422,3.422C9.797,3.047 10.297,2.828 10.828,2.828C11.359,2.828 11.875,3.047 12.25,3.422L22.422,13.594C22.797,13.953 23,14.469 23,15Z" style="fill:rgb(111,111,111);fill-rule:nonzero;"/>
            </g>
        </g>
    </g>
</svg>
