<?xml version="1.0" encoding="UTF-8" standalone="no"?>
<!DOCTYPE svg PUBLIC "-//W3C//DTD SVG 1.1//EN" "http://www.w3.org/Graphics/SVG/1.1/DTD/svg11.dtd">
<svg width="100%" height="100%" viewBox="0 0 107 125" version="1.1" xmlns="http://www.w3.org/2000/svg" xmlns:xlink="http://www.w3.org/1999/xlink" xml:space="preserve" xmlns:serif="http://www.serif.com/" style="fill-rule:evenodd;clip-rule:evenodd;stroke-linejoin:round;stroke-miterlimit:2;">
    <g transform="matrix(1,0,0,1,-75.7718,-147.562)">
        <g transform="matrix(0.534408,0,0,0.548748,0,0)">
            <g id="file-pdf-o" transform="matrix(8.33113,0,0,8.11342,141.795,268.908)">
                <path d="M22.937,5.938C23.515,6.516 23.999,7.672 23.999,8.5L23.999,26.5C23.999,27.328 23.327,28 22.499,28L1.499,28C0.671,28 -0.001,27.328 -0.001,26.5L-0.001,1.5C-0.001,0.672 0.671,0 1.499,0L15.499,0C16.327,0 17.483,0.484 18.061,1.062L22.937,5.938ZM16,2.125L16,8L21.875,8C21.781,7.734 21.641,7.469 21.531,7.359L16.64,2.468C16.531,2.359 16.265,2.218 15.999,2.124L16,2.125ZM22,26L22,10L15.5,10C14.672,10 14,9.328 14,8.5L14,2L2,2L2,26L22,26ZM13.969,16.734C14.36,17.047 14.797,17.328 15.281,17.609C15.937,17.531 16.547,17.5 17.109,17.5C18.156,17.5 19.484,17.625 19.875,18.266C19.984,18.422 20.078,18.704 19.906,19.078C19.89,19.094 19.875,19.125 19.859,19.141L19.859,19.157C19.812,19.438 19.578,19.751 18.75,19.751C17.75,19.751 16.234,19.298 14.922,18.61C12.75,18.844 10.469,19.329 8.797,19.907C7.188,22.657 5.953,24.001 5.016,24.001C4.86,24.001 4.719,23.97 4.578,23.892L4.203,23.705C4.156,23.689 4.14,23.658 4.109,23.627C4.031,23.549 3.968,23.377 4.015,23.065C4.171,22.346 5.015,21.143 6.953,20.127C7.078,20.049 7.234,20.096 7.312,20.221C7.328,20.237 7.343,20.268 7.343,20.284C7.827,19.487 8.39,18.471 9.015,17.206C9.718,15.8 10.265,14.425 10.64,13.112C10.14,11.409 9.984,9.659 10.265,8.628C10.374,8.237 10.609,8.003 10.921,8.003L11.265,8.003C11.499,8.003 11.687,8.081 11.812,8.237C11.999,8.456 12.046,8.799 11.953,9.299C11.937,9.346 11.922,9.393 11.89,9.424C11.906,9.471 11.906,9.502 11.906,9.549L11.906,10.018C11.89,11.002 11.875,11.94 11.687,13.018C12.234,14.659 13.046,15.987 13.968,16.737L13.969,16.734ZM4.969,23.156C5.438,22.937 6.11,22.265 7.11,20.687C5.938,21.593 5.204,22.624 4.969,23.156ZM11.188,8.781C11.032,9.219 11.032,9.969 11.157,10.844C11.204,10.594 11.235,10.36 11.266,10.156C11.297,9.89 11.344,9.672 11.375,9.484C11.391,9.437 11.406,9.406 11.438,9.359C11.422,9.343 11.422,9.312 11.407,9.281C11.391,9 11.298,8.828 11.204,8.719C11.204,8.75 11.188,8.766 11.188,8.782L11.188,8.781ZM9.25,19.109C10.625,18.562 12.156,18.125 13.688,17.843C13.532,17.718 13.375,17.609 13.235,17.484C12.469,16.812 11.782,15.875 11.251,14.734C10.954,15.687 10.517,16.703 9.954,17.812C9.72,18.25 9.485,18.687 9.251,19.109L9.25,19.109ZM19.344,18.859C19.266,18.781 18.86,18.484 17.156,18.484C17.922,18.765 18.625,18.922 19.093,18.922C19.234,18.922 19.312,18.922 19.374,18.906C19.374,18.89 19.358,18.875 19.343,18.859L19.344,18.859Z" style="fill:rgb(255,0,83);fill-rule:nonzero;"/>
            </g>
        </g>
    </g>
</svg>
